# xmcd CD database file
#
# Track frame offsets:
#	150
#	16410
#	32742
#	51480
#	63882
#	82740
#	98435
#	111500
#	125130
#	140027
#
# Disc length: 2052 seconds
#
# Revision: 3
# Processed by: cddbd v1.5.2PL0 Copyright (c) Steve Scherf et al.
# Submitted via: CDex 1.51
#
DISCID=8608020a
DTITLE=Larry Gatlin and The Gatlin Brothers - Cookin Up A Storm
DYEAR=1990
DGENRE=Country
TTITLE0=Somebody's Number One
TTITLE1=Country Girl Heart
TTITLE2=If This Isn't Love
TTITLE3=Just Might Catch My Dreams
TTITLE4=The Big Time Again
TTITLE5=Ain't Love A Kick In The Heart
TTITLE6=Angel Loose In Houston
TTITLE7=Gonna Have To Cross The Line
TTITLE8=The Prodigal Son
TTITLE9=Boogie And Beethovan
EXTD=34 YEAR: 1990
EXTT0=
EXTT1=
EXTT2=
EXTT3=
EXTT4=
EXTT5=
EXTT6=
EXTT7=
EXTT8=
EXTT9=
PLAYORDER=
